<svg xmlns="http://www.w3.org/2000/svg" viewBox="0 0 320 180" fill="none">
  <rect width="320" height="180" rx="12" fill="#eef5f5"/>
  <rect x="20" y="24" width="140" height="74" rx="10" fill="#2c8a8e"/>
  <rect x="34" y="40" width="20" height="20" rx="6" fill="#ffffff" opacity="0.3"/>
  <rect x="34" y="70" width="80" height="8" rx="4" fill="#ffffff"/>
  <rect x="168" y="24" width="60" height="34" rx="10" fill="#ffffff" stroke="#cdd9dc"/>
  <rect x="178" y="36" width="34" height="10" rx="3" fill="#46555c"/>
  <rect x="236" y="24" width="64" height="74" rx="10" fill="#2dbe9c"/>
  <rect x="248" y="38" width="20" height="20" rx="6" fill="#ffffff" opacity="0.35"/>
  <rect x="248" y="68" width="40" height="8" rx="4" fill="#ffffff"/>
  <rect x="168" y="66" width="60" height="32" rx="10" fill="#ffffff" stroke="#cdd9dc"/>
  <rect x="178" y="78" width="34" height="8" rx="4" fill="#9fb6bb"/>
  <rect x="20" y="106" width="92" height="50" rx="10" fill="#ffffff" stroke="#cdd9dc"/>
  <rect x="32" y="118" width="18" height="18" rx="5" fill="#cfe6e6"/>
  <rect x="32" y="142" width="56" height="7" rx="3" fill="#9fb6bb"/>
  <rect x="120" y="106" width="108" height="50" rx="10" fill="#cfe6e6"/>
  <path d="M150 150l18-16 12 10 16-14 14 20z" fill="#9fc7c8"/>
  <rect x="236" y="106" width="64" height="50" rx="10" fill="#ffffff" stroke="#cdd9dc"/>
  <rect x="248" y="118" width="40" height="16" rx="4" fill="#2c8a8e"/>
  <rect x="248" y="140" width="40" height="6" rx="3" fill="#9fb6bb"/>
</svg>
