<svg xmlns="http://www.w3.org/2000/svg" viewBox="0 0 320 180" fill="none">
  <rect width="320" height="180" rx="12" fill="#eef5f5"/>
  <rect x="20" y="28" width="50" height="9" rx="4" fill="#2c8a8e"/>
  <rect x="20" y="46" width="96" height="11" rx="5" fill="#46555c"/>
  <g>
    <rect x="150" y="30" width="150" height="26" rx="8" fill="#ffffff" stroke="#cdd9dc"/>
    <rect x="160" y="40" width="96" height="6" rx="3" fill="#46555c"/>
    <circle cx="286" cy="43" r="8" fill="#dcefef"/>
    <path d="M282 43h8M286 39v8" stroke="#2c8a8e" stroke-width="2"/>
  </g>
  <g>
    <rect x="150" y="64" width="150" height="44" rx="8" fill="#ffffff" stroke="#cdd9dc"/>
    <rect x="160" y="74" width="96" height="6" rx="3" fill="#46555c"/>
    <rect x="160" y="88" width="120" height="5" rx="2" fill="#cdd9dc"/>
    <rect x="160" y="97" width="100" height="5" rx="2" fill="#cdd9dc"/>
    <circle cx="286" cy="77" r="8" fill="#2c8a8e"/>
    <path d="M282 77h8" stroke="#ffffff" stroke-width="2"/>
  </g>
  <g>
    <rect x="150" y="116" width="150" height="26" rx="8" fill="#ffffff" stroke="#cdd9dc"/>
    <rect x="160" y="126" width="96" height="6" rx="3" fill="#46555c"/>
    <circle cx="286" cy="129" r="8" fill="#dcefef"/>
    <path d="M282 129h8M286 125v8" stroke="#2c8a8e" stroke-width="2"/>
  </g>
</svg>
