<svg xmlns="http://www.w3.org/2000/svg" viewBox="0 0 320 180" fill="none">
  <rect width="320" height="180" rx="12" fill="#eef5f5"/>
  <rect x="124" y="18" width="72" height="9" rx="4" fill="#46555c"/>
  <g fill="#d7e6e7">
    <rect x="24" y="40" width="84" height="58" rx="8"/>
    <rect x="118" y="40" width="84" height="58" rx="8"/>
    <rect x="212" y="40" width="84" height="58" rx="8"/>
    <rect x="24" y="106" width="84" height="58" rx="8"/>
    <rect x="118" y="106" width="84" height="58" rx="8"/>
    <rect x="212" y="106" width="84" height="58" rx="8"/>
  </g>
  <g fill="#bcd6d7">
    <rect x="24" y="40" width="42" height="58" rx="8"/>
    <rect x="118" y="40" width="42" height="58" rx="8"/>
    <rect x="212" y="40" width="42" height="58" rx="8"/>
    <rect x="24" y="106" width="42" height="58" rx="8"/>
    <rect x="118" y="106" width="42" height="58" rx="8"/>
    <rect x="212" y="106" width="42" height="58" rx="8"/>
  </g>
</svg>
