<svg xmlns="http://www.w3.org/2000/svg" viewBox="0 0 320 180" fill="none">
  <rect width="320" height="180" rx="12" fill="#EEF4FD"/>
  <rect x="116" y="20" width="88" height="9" rx="4" fill="#46555c"/>
  <g>
    <rect x="24" y="46" width="84" height="110" rx="8" fill="#ffffff" stroke="#cdd9dc"/>
    <g fill="#e6a73e"><circle cx="36" cy="62" r="3"/><circle cx="46" cy="62" r="3"/><circle cx="56" cy="62" r="3"/><circle cx="66" cy="62" r="3"/><circle cx="76" cy="62" r="3"/></g>
    <rect x="36" y="78" width="60" height="5" rx="2" fill="#cdd9dc"/>
    <rect x="36" y="90" width="56" height="5" rx="2" fill="#cdd9dc"/>
    <rect x="36" y="102" width="48" height="5" rx="2" fill="#cdd9dc"/>
    <circle cx="44" cy="134" r="9" fill="#bfe0e1"/>
    <rect x="58" y="130" width="38" height="6" rx="3" fill="#46555c"/>
  </g>
  <g>
    <rect x="118" y="46" width="84" height="110" rx="8" fill="#ffffff" stroke="#cdd9dc"/>
    <g fill="#e6a73e"><circle cx="130" cy="62" r="3"/><circle cx="140" cy="62" r="3"/><circle cx="150" cy="62" r="3"/><circle cx="160" cy="62" r="3"/><circle cx="170" cy="62" r="3"/></g>
    <rect x="130" y="78" width="60" height="5" rx="2" fill="#cdd9dc"/>
    <rect x="130" y="90" width="56" height="5" rx="2" fill="#cdd9dc"/>
    <rect x="130" y="102" width="48" height="5" rx="2" fill="#cdd9dc"/>
    <circle cx="138" cy="134" r="9" fill="#bfe0e1"/>
    <rect x="152" y="130" width="38" height="6" rx="3" fill="#46555c"/>
  </g>
  <g>
    <rect x="212" y="46" width="84" height="110" rx="8" fill="#ffffff" stroke="#cdd9dc"/>
    <g fill="#e6a73e"><circle cx="224" cy="62" r="3"/><circle cx="234" cy="62" r="3"/><circle cx="244" cy="62" r="3"/><circle cx="254" cy="62" r="3"/><circle cx="264" cy="62" r="3"/></g>
    <rect x="224" y="78" width="60" height="5" rx="2" fill="#cdd9dc"/>
    <rect x="224" y="90" width="56" height="5" rx="2" fill="#cdd9dc"/>
    <rect x="224" y="102" width="48" height="5" rx="2" fill="#cdd9dc"/>
    <circle cx="232" cy="134" r="9" fill="#bfe0e1"/>
    <rect x="246" y="130" width="38" height="6" rx="3" fill="#46555c"/>
  </g>
</svg>
