<svg xmlns="http://www.w3.org/2000/svg" viewBox="0 0 320 180" fill="none">
  <rect width="320" height="180" rx="12" fill="#eef5f5"/>
  <rect x="120" y="20" width="80" height="9" rx="4" fill="#46555c"/>
  <g>
    <rect x="24" y="48" width="84" height="50" rx="8" fill="#ffffff" stroke="#cdd9dc"/>
    <circle cx="40" cy="64" r="9" fill="#bfe0e1"/>
    <rect x="32" y="80" width="56" height="6" rx="3" fill="#9fb6bb"/>
  </g>
  <g>
    <rect x="118" y="48" width="84" height="50" rx="8" fill="#ffffff" stroke="#cdd9dc"/>
    <circle cx="134" cy="64" r="9" fill="#bfe0e1"/>
    <rect x="126" y="80" width="56" height="6" rx="3" fill="#9fb6bb"/>
  </g>
  <g>
    <rect x="212" y="48" width="84" height="50" rx="8" fill="#ffffff" stroke="#cdd9dc"/>
    <circle cx="228" cy="64" r="9" fill="#bfe0e1"/>
    <rect x="220" y="80" width="56" height="6" rx="3" fill="#9fb6bb"/>
  </g>
  <g>
    <rect x="24" y="108" width="84" height="50" rx="8" fill="#ffffff" stroke="#cdd9dc"/>
    <circle cx="40" cy="124" r="9" fill="#bfe0e1"/>
    <rect x="32" y="140" width="56" height="6" rx="3" fill="#9fb6bb"/>
  </g>
  <g>
    <rect x="118" y="108" width="84" height="50" rx="8" fill="#ffffff" stroke="#cdd9dc"/>
    <circle cx="134" cy="124" r="9" fill="#bfe0e1"/>
    <rect x="126" y="140" width="56" height="6" rx="3" fill="#9fb6bb"/>
  </g>
  <g>
    <rect x="212" y="108" width="84" height="50" rx="8" fill="#ffffff" stroke="#cdd9dc"/>
    <circle cx="228" cy="124" r="9" fill="#bfe0e1"/>
    <rect x="220" y="140" width="56" height="6" rx="3" fill="#9fb6bb"/>
  </g>
</svg>
