<svg xmlns="http://www.w3.org/2000/svg" viewBox="0 0 320 180" fill="none">
  <rect width="320" height="180" rx="12" fill="#EEF4FD"/>
  <rect x="120" y="20" width="80" height="9" rx="4" fill="#46555c"/>
  <g>
    <rect x="22" y="46" width="64" height="112" rx="8" fill="#ffffff" stroke="#cdd9dc"/>
    <rect x="22" y="46" width="64" height="60" rx="8" fill="#D8E8FB"/>
    <circle cx="54" cy="76" r="16" fill="#ffffff"/>
    <rect x="32" y="116" width="44" height="7" rx="3" fill="#46555c"/>
    <rect x="32" y="128" width="34" height="5" rx="2" fill="#3080D8"/>
  </g>
  <g>
    <rect x="94" y="46" width="64" height="112" rx="8" fill="#ffffff" stroke="#cdd9dc"/>
    <rect x="94" y="46" width="64" height="60" rx="8" fill="#D8E8FB"/>
    <circle cx="126" cy="76" r="16" fill="#ffffff"/>
    <rect x="104" y="116" width="44" height="7" rx="3" fill="#46555c"/>
    <rect x="104" y="128" width="34" height="5" rx="2" fill="#3080D8"/>
  </g>
  <g>
    <rect x="166" y="46" width="64" height="112" rx="8" fill="#ffffff" stroke="#cdd9dc"/>
    <rect x="166" y="46" width="64" height="60" rx="8" fill="#D8E8FB"/>
    <circle cx="198" cy="76" r="16" fill="#ffffff"/>
    <rect x="176" y="116" width="44" height="7" rx="3" fill="#46555c"/>
    <rect x="176" y="128" width="34" height="5" rx="2" fill="#3080D8"/>
  </g>
  <g>
    <rect x="238" y="46" width="64" height="112" rx="8" fill="#ffffff" stroke="#cdd9dc"/>
    <rect x="238" y="46" width="64" height="60" rx="8" fill="#D8E8FB"/>
    <circle cx="270" cy="76" r="16" fill="#ffffff"/>
    <rect x="248" y="116" width="44" height="7" rx="3" fill="#46555c"/>
    <rect x="248" y="128" width="34" height="5" rx="2" fill="#3080D8"/>
  </g>
</svg>
