<svg xmlns="http://www.w3.org/2000/svg" viewBox="0 0 320 180" fill="none">
  <rect width="320" height="180" rx="12" fill="#EEF4FD"/>
  <rect x="120" y="22" width="80" height="9" rx="4" fill="#46555c"/>
  <rect x="56" y="64" width="208" height="3" rx="1.5" fill="#cdd9dc"/>
  <g fill="#2266C0">
    <circle cx="56" cy="65" r="11"/>
    <circle cx="125" cy="65" r="11"/>
    <circle cx="195" cy="65" r="11"/>
    <circle cx="264" cy="65" r="11"/>
  </g>
  <g>
    <rect x="24" y="92" width="64" height="56" rx="8" fill="#ffffff" stroke="#cdd9dc"/>
    <rect x="34" y="104" width="30" height="6" rx="3" fill="#2266C0"/>
    <rect x="34" y="118" width="44" height="5" rx="2" fill="#9fb6bb"/>
    <rect x="34" y="128" width="38" height="5" rx="2" fill="#9fb6bb"/>
  </g>
  <g>
    <rect x="93" y="92" width="64" height="56" rx="8" fill="#ffffff" stroke="#cdd9dc"/>
    <rect x="103" y="104" width="30" height="6" rx="3" fill="#2266C0"/>
    <rect x="103" y="118" width="44" height="5" rx="2" fill="#9fb6bb"/>
    <rect x="103" y="128" width="38" height="5" rx="2" fill="#9fb6bb"/>
  </g>
  <g>
    <rect x="163" y="92" width="64" height="56" rx="8" fill="#ffffff" stroke="#cdd9dc"/>
    <rect x="173" y="104" width="30" height="6" rx="3" fill="#2266C0"/>
    <rect x="173" y="118" width="44" height="5" rx="2" fill="#9fb6bb"/>
    <rect x="173" y="128" width="38" height="5" rx="2" fill="#9fb6bb"/>
  </g>
  <g>
    <rect x="232" y="92" width="64" height="56" rx="8" fill="#ffffff" stroke="#cdd9dc"/>
    <rect x="242" y="104" width="30" height="6" rx="3" fill="#2266C0"/>
    <rect x="242" y="118" width="44" height="5" rx="2" fill="#9fb6bb"/>
    <rect x="242" y="128" width="38" height="5" rx="2" fill="#9fb6bb"/>
  </g>
</svg>
